<mxfile host="app.diagrams.net" modified="2021-06-23T10:48:41.487Z" agent="5.0 (Windows NT 10.0; Win64; x64) AppleWebKit/537.36 (KHTML, like Gecko) Chrome/91.0.4472.114 Safari/537.36" etag="2VLDIhc0XchM2PE2ugNF" version="14.8.0" type="github">
  <diagram name="Page-1" id="b5b7bab2-c9e2-2cf4-8b2a-24fd1a2a6d21">
    <mxGraphModel dx="1422" dy="794" grid="1" gridSize="10" guides="1" tooltips="1" connect="1" arrows="1" fold="1" page="1" pageScale="1" pageWidth="827" pageHeight="1169" background="none" math="0" shadow="0">
      <root>
        <mxCell id="0" />
        <mxCell id="1" parent="0" />
        <mxCell id="6e0c8c40b5770093-33" value="" style="shape=folder;fontStyle=1;spacingTop=10;tabWidth=150;tabHeight=60;tabPosition=left;html=1;rounded=0;shadow=0;comic=0;labelBackgroundColor=none;strokeColor=#000000;strokeWidth=1;fillColor=#ffffff;fontFamily=Verdana;fontSize=10;fontColor=#000000;align=center;" parent="1" vertex="1">
          <mxGeometry x="670" y="150" width="600" height="710" as="geometry" />
        </mxCell>
        <mxCell id="6e0c8c40b5770093-19" value="" style="group" parent="1" vertex="1" connectable="0">
          <mxGeometry x="690" y="220" width="560" height="620" as="geometry" />
        </mxCell>
        <mxCell id="6e0c8c40b5770093-20" value="" style="shape=folder;fontStyle=1;spacingTop=10;tabWidth=150;tabHeight=70;tabPosition=left;html=1;rounded=0;shadow=0;comic=0;labelBackgroundColor=none;strokeWidth=1;fontFamily=Verdana;fontSize=10;align=center;" parent="6e0c8c40b5770093-19" vertex="1">
          <mxGeometry width="560" height="620.0000000000001" as="geometry" />
        </mxCell>
        <mxCell id="6e0c8c40b5770093-22" value="&lt;font style=&quot;font-size: 23px&quot;&gt;Server&lt;/font&gt;" style="shape=folder;fontStyle=1;spacingTop=10;tabWidth=90;tabHeight=40;tabPosition=left;html=1;rounded=0;shadow=0;comic=0;labelBackgroundColor=none;strokeWidth=1;fontFamily=Verdana;fontSize=10;align=center;" parent="6e0c8c40b5770093-19" vertex="1">
          <mxGeometry x="20" y="80" width="224" height="160" as="geometry" />
        </mxCell>
        <mxCell id="6e0c8c40b5770093-23" value="&lt;font style=&quot;font-size: 23px&quot;&gt;API&lt;/font&gt;" style="shape=folder;fontStyle=1;spacingTop=10;tabWidth=94;tabHeight=40;tabPosition=left;html=1;rounded=0;shadow=0;comic=0;labelBackgroundColor=none;strokeWidth=1;fontFamily=Verdana;fontSize=10;align=center;" parent="6e0c8c40b5770093-19" vertex="1">
          <mxGeometry x="296" y="80" width="224" height="160" as="geometry" />
        </mxCell>
        <mxCell id="DuaEEdyuPfg1Iy30Oizu-4" value="" style="shape=image;verticalLabelPosition=bottom;labelBackgroundColor=#ffffff;verticalAlign=top;aspect=fixed;imageAspect=0;image=https://ncube.net/wp-content/uploads/2020/11/vertical-logo-monochromatic.png;" parent="6e0c8c40b5770093-19" vertex="1">
          <mxGeometry x="41" y="6" width="70.12" height="60" as="geometry" />
        </mxCell>
        <mxCell id="DuaEEdyuPfg1Iy30Oizu-12" value="" style="shape=image;verticalLabelPosition=bottom;labelBackgroundColor=#ffffff;verticalAlign=top;aspect=fixed;imageAspect=0;image=data:image/png,iVBORw0KGgoAAAANSUhEUgAAAM4AAABqCAYAAAD0km48AAAMyklEQVR4Ae1cjY0WPQ+8FqiBFuiBEqiBFuiADuiACqiABmiADujhXs2HrPP5knHiOHl2P7wS2uxf4oxnYsf3iKfnOgqBQmAagafpL+qDQqAQeC7hFAkKgQACJZwAaPVJIVDCKQ4UAgEESjgB0OqTQqCEUxwoBAIIlHACoNUnhUAJpzhQCAQQKOEEQKtPCoESTnGgEAggUMIJgFafFAIlnOJAIRBAoIQTAK0+KQRKOMWBQiCAQAknAFp9UgiUcIoDhUAAgRJOALT6pBAo4RQHCoEAAiWcAGj1SSFQwikOFAIBBIaE8/nz5+enp6fuv2/fvgWGzvvky5cvXds+ffqUN9BkTxib4fb9+/ehHlkfp559/PhxyFb70s+fPykGUfs/fPjwDJvge+D4+/dvO/TW6yHh/Pjxg04+CmrWzAAic0DWOLP9vHv3jtr158+foS7Z3E49i/p4l3Ba8wYPsIiP4joEfuelIeHg25ah+l6n/+23sdJoO1ptOO/04REGTh49WnM6fe8OwhFMsGB9/fp1FN7Qe8PC8dIORKVHHAjTAljvjHB++oDjevbg/oxjWT+nnt1JOIIJFqdfv35tcf2wcBACxaDW+RHkBCKeoGHrzOqehTKI1sJJ7s1EQfnmkec7Cgd4IfqM7iVnfD8sHC8lev/+/cy4ae96+wgh28nNI3JsGbd1hs0zR6uP0/fuKhzBKVs8w8KBo7FyiyGt80lywh5vH6FtzAaOEd8rpsxW+vQ8HtW+u3CAW2baNiUcVvaFYSfJCeJ69miSoaR+6vDsmsVJz8O2Z/ZKp+avx/EWt5mUFf2C/PgG8/bSYYsVsqKsituUcDwQZldSDXCk7UVADdxsehSxR76Bg/TYtj0bme33+vpfE45gLGcIARiMpuxZeE0JB8YyA0+S09tzaXJJOzNUi+Ps2bMrUqgQ+1vnLCLYeWRde4stnmccENDIQgqOZkSdaeF4vyLIAsIDE+lOi0js3gmSeXZFqo+PnpPnC/b8lHDEhpH0bTZVlr71eVo4HjFOkBMT6JWhe/dBvugGVwPmtXcsLCUcD/WX54gmLCsClhlbimnhwDDmyEgq8jLt8VYPHAiX2ZcRppmVPbtgE55FDjafUwtVxG58czriYEyPAxl/OpkWDgzzcsnd5GTOwB9q2eZ85y8csIdiJI+udKzPEs5bSXv7TOC5eoR68H5FkJFDsomxci9ExfLcnWVpDxc8jxwlnHnUvMV9vsfXX4SE462sO8kJ8xkoiHZMWBlh+jWEL1dMsCD/bBlaei7hCBLjZ88X4z213wwJB12xdGgnOVkYlv2V95f7KIHbEL7cZQRfwYT1W6naC/66dVnheNWjXX8zYVU9KfV6BYxoyqQdY9ts3wXii232u5HrEs4ISq/fuaxwvFV9BzkBDSs3640/S+eim/TXrnl9xdJDEF/b9vpL/6qE42Nk32DCWYn+Mk44VUMHzKEwfMfByr16PI/I+t2MNhMqcFo5GM6VqrWRZf7IWDiXPMpW/1WytOBg6ZAFg70L2/A86/BSQ2vb7LglnDnEPH9kZENLwoEBzKkr6UkLKhZFWmCw6LSy57C27U5bGcYVcaw3nv/3K32GWUZxaEk4rMIFwzPJCXhY+G2BwSIi+so6dhdKGAlKOG+9yPY3q9FfRlsSDjphZM7YhImhTKS9cVgFDmRsiU3Gmzlj/B65e7bN9N/rG/dLOK+R9KJ/Voq+LByWPmWSk4mgF9mY2GBbxi8cvDEy/hhcwnktjt4VfMHS86xog/GXheP9iqC19+hNnN1naRfbS7GImAHkiX1eCYcx4+8ziIb5GoJC0SDrWBYODDmhcjYGA4NFRPS5ejBBg/AZzirhcC9h4WT8AH7Zf5BPEQ7bHGeQk5WWvajBvs0AlDks629ZJZy2cOBbVggQ3DJScmtBinDY/gPGr27IWNQYSQUZuVc216fSVCFA67xivyXDjmtv4RrlBiI33gXXwAdWkBGc4PfsSCMYpQjH+4NTb/MuRnhnlrsit/UOlk6h7+gB0oqTWucsp7X6PnVvNWp6wtk1D/g8I03ucSNFOOichcwVcrKq1Wip14uIUYDZnEdt6zlG399FrpF+7yYc2DsaxTTGs+004XjVpSg5GelHIxkTH8jDqnI9QL0om1GGlrFHCL7rnbsIBwsVuHLqSBOOl+9HJ8XSrBnCs5w4QnKMzcganW/L8Wyc3c/uIhyNAzIcLKpZqXLTJ62b0XvZ5IQdbGM/YyeA1ODqdiStYv2h72iEbc1J23q6fUfhaIx2pW5pEQcOZ2SCAGYPtrGcdagXIWZXJ1awWNnTtTDSRDjdnsXZ2s98eHIu2cWCVOFkk5MJcaQMbZ3IHDXTn7dnyi4RM7t3P/t/EQ5wyixPpwoHRGWOnCEn+mKr+myEQH9sv4RnowcrWGD+EdvY2AzTbJEyOyLPvIgzWwHDooVv4APMHcJm+NhnWeJJFw4j58zqxVb1yJ4ETvcqf6PE2P1LCWuHdb6+/teEY7HBNfaTENKoiDLEky4cbzUe3TSzfiJVMADMxAgyjlbpALwmr25HbWsRQu7p/m27hCMo/T0jGrFMRfBb3YemCyeLnCxyjRL8NaR/r1jlD3sq70AaJuC3zhB89tEaR+6VcN6ijcWZZQUZ2KULB9Ngih8hJ/pgq/po1HoLKa/8jaxCXrqHhSP7EEe3ziWcPtqeeMCxKJe2CIdVw0b2J2xDObNPakHqVf484rNIOCK8lk3evZZg5F4Jp48eRMEyDGAYzRC2CMdLZzxyMuHNVuZasArpWmcPyNY3cm80mrZsYvek/9a5hMOQ8//jjplqqh5pi3AwAEu1PPKzVC+j1MuiBgOSRUKQGs93HC3ByL0Sjo844yJwjByxrwZGYvklIycrLoykeQOm0bI0QO4dIKkQ1p7Zd73+Ru/bsfR1CcdHkXERWEYWvG3C8fYSvenuKEPbsZg4AWQvqrFIyBYDO/7stRaKbZdwfDS9go6XnrdG2CYcbMysk/V1T+UsjVopQ9vJs01ji4zefCLgW5t61xo3227Z2uvnEfcfld7quXo2RDDcJhwYzv6S29tIs3w0WjrUIEqbFSBa1TEvgnoFDxk3crZi0dcRp0dsiH7jkba3gEbHa33n2RDBcKtwWIhskZNNcLUMbQH1hGBFyvLk1lzseCvXWii2HXH6ii2z3zKfYi4lnAai3l7CrtIsCniVuMbw9NZs6sVSu170pAZMPLRi0dclHB9Ib5GMYLg14mBKjHB2X8A2370Nuw9b/w2WSiLCyOEtAJl7LxlTn7VQbDvidN337vYVIg4wsrjp64j/tguHRZFRcmaVoS1JWCqpx2SVPjhg96GdbNslHB99tkACz0i6uN3rLEzqv30wcmqB+TCNv+H9wkGiHKv07SxDy0ysWPR1CUdQap+9bAFYRo7YV5MjsUrZCDkjoXTUxJFUktmfvfdq2a2FYtslnBZiL/e8NC268B0RDluxZZ/DyGkrXC+wrLdYtQxppheVbIFj3aK3PVix6OsSzlu85I7nO+Ao/JNvRs9HhMPSMI+c2WVoCwxLJTE2s13vg2y/mddaKLZdwmkjjcWWFZuAIxbr6KJ8RDgsz/TIuZsYrCwNYFmo312GFkpYsejr3fiIDdHzI6pqI6IBhivYHREOQO+pH6s2I6fsgaKOG/mOVV3Ys517L223Foptrzhfj7GrfVo48AlL+wW/lWgDrI4Jh4mjR05M7sTBytICdOscDfOzc2qNLfdKOH/RhGB6PBKs9Hl10TsmnJGNmp4Y2rvK0Ja4EdvgpFOHxUVf/4vCQeqPSIYFDxwZiTAas4wU+5hwQLLZCUYrHhFCs7K0Bl3aJ8rQMg8Z8wrn2T8Weqna6TllLcZHhcNKvy0AT6VCIOisbSf2XiWcJ/pTmRZn2L0s0cAvR4WDvJJNTD/b/YtjIaWcZ2w7VYYW2zQuj27fMeIg08nOXo4Kh5V+LSFO5+4ztmWuXCIOdrbYPPL6bsLBXnRHdnBUOCDHaOVjx2QZOfGsVzK3RF2tyHh22Od2/Ede30U4yAqyo4z2y3HhjJR+T5WhNRBos5K5JuvJvRfs0mM/un1l4YA3yAZmbbQ8GLk+Lhz2KwIhxelUSIAaKUufLEOLXYLLFc6zpMT7O+yGSOAL/A4SC96sXYJt9HxcOFFD67tC4EoIlHCu5I2y5TYIlHBu46oy9EoIlHCu5I2y5TYIlHBu46oy9EoIlHCu5I2y5TYIlHBu46oy9EoIlHCu5I2y5TYIlHBu46oy9EoIlHCu5I2y5TYIlHBu46oy9EoIlHCu5I2y5TYIlHBu46oy9EoIlHCu5I2y5TYIlHBu46oy9EoIlHCu5I2y5TYIlHBu46oy9EoIlHCu5I2y5TYI/Ach6KtUE5UPhQAAAABJRU5ErkJggg==;" parent="6e0c8c40b5770093-19" vertex="1">
          <mxGeometry x="36" y="86" width="58.3" height="30" as="geometry" />
        </mxCell>
        <mxCell id="DuaEEdyuPfg1Iy30Oizu-13" value="" style="shape=image;verticalLabelPosition=bottom;labelBackgroundColor=#ffffff;verticalAlign=top;aspect=fixed;imageAspect=0;image=data:image/png,iVBORw0KGgoAAAANSUhEUgAAANQAAABbCAYAAAALOKsVAAAOLElEQVR4Ae2aga0UvQ6FaYEaaIEeKIEaaIEO6IAOqIAKaIAG6IAe9tf3pEhRlBw7iZ256CXS1ezOzCb28Tm2E3j3uuMicBEIQ+Bd2Ex3oovAReB1BXVJcBEIROAKKhDMO9VF4ArqcuAiEIjAFVQgmHeqi8AV1OXARSAQgSuoQDDvVBeBK6jLgYtAIAJXUIFg3qkuAldQlwP/NAJ//vx5/fz58/Xt27fX58+fX58+fXq9f//+9e7du+Ef75Q/fvf9+/fXr1+/QnCYEtSXL1+GRuIAhj05vn79OrQPsJ8arK0C/OPHj1TTrLj9/fs3df3oyX///v0i1h8+fJC4KsxHzz5+/Pg/Hq9iMiUoMsHIEO6j+icHYCj7nrLNypirwfP4w9zW+k8nQo8fvEPisWKs4j/zbJXLU4LCKcsoLzjR71H6LduiyvqM7ayp7IIgmQMSqvV5RqZ/ywMMM6qRwuWYoKz2hSr2xPAQhzbh9KBHV4HjeebwZvQnko3lN9XV4pvCdufZMUHRHihDnyAtgfEAn10NegQhMAqvTCJ7qnaxjX3WWxrsk05XpYIF12OCsoL0VPtg7RMKWNh/apBhy7q9KzZnDnVI09qDLZl7uRk/EZM3nq0fUd+PCQpgrDbiJGmxx9qn1CBnn6jVxLEOcaiqmWOWlCexGfm9IiZwpHWGB/x+NHjGO/Ux+6gKHhWUlflOB8aypxbUydbGsisTJ0vMNSbl8xMtcU1+KuSI4MXGcuU98IuoqhQA5qq3DUcFZVWE7MxbB4HPVsUsQeCa3WbVtlnkyKzkNTla/yFLfa/+rDJ87VvGZ+vfy0r8MhMRAqXarSbe6WPzAqRqJ06SFlLWhPB8PkEay67MaqDWRkzq5JGq+sRQNpeYghnvveWxLCgrm1DFTgyyVQHce80+qsZvy65M4qqTWHxX7eDJZFjzw+IT1T6ivavXzPi8LCiLMCdICyCj1mZ0H9Gt9sczAbAIkplwVKtJdYaYKvlktlQjDFXHg62ZeI1sWrm/LCgrKJktTe3oKBCqrSFA2dluZBdrZ1YBBDMSC0IrQyUcnp0c1p78RAKM8ndZUBhgHQZkk1YFgrZHZWranqyhSA3ZMwmrKmP9f/asDuPkXsVKfk9UzFVubAlK9eoQJxsIdSyN2NRpFsTLGhYuNbEjbSCBqcrYikS9e6plx39LUCcOkaLisCUoKxNnkhYAVIWEXEpwdfsTBWaZRwmZRNMSu/xu96qqTq9tUtUsE5/WTwuv9v23/H1LUDim2qrMoEDK0V6h7N/UaVYmsUd2cT8TE0XMXregWmZszWyLa1Eou7HjXxrb1qosBxhZ5Vpl43IkTZXChtFfRutlkbTYFk0SlWBo7Ub7WZUQszuMgoElqCwOlfUjr9uCsqpABmkBQJ1S1ZlVtYUZhwOqzUTYtW2RgVTrKmFY+5eRECNtt2zoVdfI9SPn2hYUxowqAPfJPhlDbajr9RTRsC96KAFnrFfsV5VGiVhVNuzNSojFbq6swVqjv4zEV68f+TmEUapaZJBItVUt+OpdbON51LBazNa2qHVVl+DZs6mWy/P7XT+swy3ilHWQs2t7+/sQQVkZRmXI1iDPd1V1ehlVVTPmihqK2JCiZ1vE2iqhefxT+1HsPrGHUTHChqxOJwL/eo4QQVltgyeotVHWZ9VW9TKZIlw5EbTW9Dx/4oDGqoo9PFpfmEMRWu3B2rlWv6skiaD4O2HHqv3ldyGCYjJF8si2QYl3tI6VgT2kK4CpK+uX4LfXkW1qPs8z1R3MJAuVDBBb9uGEimuNJckx2xYP7qN3wgRlZZgo0ipxjCqhFayIUyRrjazsqkQ802Jae80IjEYkLPet074iLHyO3PuW9SOuYYKyNpYzwVWOqfZN7dVUBWXO3aEqBURQtq2ubWE+m8mVOGeq3ao//E7FqQiqXElSsz7u2Ob5bZigWEz14RGktdZQDqsKit27QwkdAmQEXrVpK3hbFSKqy1BYg9OMqIgddmfgq+wcPQsVlApwBGlVW2IRSP0Wwu+eZKlkknVCpdZcqYhW2zpqqUfkWr0/KyriR3U90ZZaPoUKSu1vcHq371VVxtNSKgKS5VaH1Xp5bJtdW2G9k7xUddiZd9Y/RKX+fQw+9f6eFlaooACh52S5t5vhVLA97Yhqy5h7dVit0m7169mlyLaDsxIqcVypfD37vfcsbAu32ivCIpGdbgVDBQVIKtA7pFXtCOB5hkWWVfCVz17bPPaXdxQWEGtHwFZStFrrYmPklc4GHFvReL7zO+J+aoQLyjrtWiWtEoM3I1tEXMm+FgEzjstV1o4QsNoLQ2JPNxBNYHBWflviApeV+M76ES4oaz+xmi1UuzYDlMp0K+RnbRXMVX9VIJUPEfs1yyeI/dRAzKojULHgGb/NTAjhggJoFfAV0jKnOlCYCa462MDu2aHmI4CrFXlkh0X2KLKoGK7gNPJn9f5OG0hcspJCiqAUyVZOitSRNxlnZliEnN1/qIOSnT3jyCfVjkXub1QMIeTuie3Iv9n7dABK/Ng6+iM+s/G27EsRVDRpVXBXWpwRwNyfmY9qoOaKzoLWfi2yvbR8W+00LEKuPt8R1kzMLftSBMWiimizDqgqsJJh1H5sJssTROXnim0qYOA2Wo/KH91eKtyxI3o95bvnGfaQxNT2YIRfVIJIE5Qi7UybpjLlai+viAng3qHar5XW1lpXETyKELUNVsKYTYz13Jmfi7BG4hndB9/dJOFnzyQCVjC8hqt5VkmkRArYtKyeoTLhqm2jdal2IyJwP2NPQ4zUmhDwLQ/irJJez7ddUaUJKoq0qtJ5id8LutrIsmezhkVwEkHkUMRYrdQe+9S6EDK6rfXYNPsOyWbmqH0nGaYJCqdVi+IhLXOoKuCtcr0AqIMOT+a12kYSSuRQOEQfftR2WwdMO+Sr1znxmZgpHOuKtdrOpgpKkdaTVSOPy9uAWUSxBKEqp0eQrT3qu2p7axI88RmC7iQ25XfGM+KqEn3BEL8sDvTsSxWU1RZZBitBrmaQGoQCXu9qtWy935R73upb26I+z7QrxYaTVwsr5dsTz0gAHlGtVN9UQQGWKrGWKJTTEb27qjI8Gw1VOSFy5AEBSeekOFbWmjm1HWF6+r5XVFbSb+1OF5Ta1CrSKiJ52sXW0d53BD0iEIlgNNizrPxuNJ+6r9Ya2fDE/VniKZ9PPcNmlfDBcXZ/mi4oa68yAk/tG1ZKcW8dJVrAHFVBVTlVkujZYN1Tp5FPCGe0ZnSba+ES9dxKWMR6ZqQLitI6CgL3R+2Rasd2jstbcBRhe9nJ8idyP2G1lgrX08+iuoY2PtnfiadVpXjHO9IFhSFqUz3KbMrJGQctINTBRy87WRU3svVR7fJpwXjWi0x0Vtwin6vkjd+jpN+z4Yig1F6lR1qVmaM3wJZAWvEqkvd86YHuuce6isRRba/HlvKOhVV0u1vWzb5abd9M13FEUNZepc3qqmpYJ4Oz4FvEbcFULeKo2s7axPtqD4nQnqoGqnPArjaWK76f/o1K4PjUa/1HNh4RFIsrIrakJdOPsvPooGDkoOe+aknrSmAlhkiSKwwg9VNDJTtiFp3wTvj5TwpKBcJL2qyNr2pJ6zWtqhEVfOsfxGu8otb0zmPZVuPlnfPp96xWtk34yt5jFUoZXWdcRdosIlkkKVVRbV4j9w8q+VAFij0qsJnPVPXEvplNfKad3rmtPdSMP8cEhXOq/y4kUaSNbKlasD0tqbI/stVR67yFCqCSHoLKSnxtzKK+K87hz8y+8KiglOGlrCoytSduUYAyDyQAvN4fFcOqYjOgK7stsmLL08M6yAHDzFhF+m/5Ah9nxlFBKbJYpI0+Lm9BUi0payvbI6uGSjqz2bL1MfK7SkDYWRKkZ01i/5QArXaPeMyMo4JSp2QWaWeOLmcAKO+qTEWWUsBHVQ2FDySN/Heu4vfq1ToZm7GV2INxZkvf85OuQ3VEs4mBNY4KigVHG1qyvCJt2WP1gIm6R2ABsfennkURQfmPTZH7tAjM1L4Te70xq7Hl88whwKofJK8RF0v8VzqP44JSpKmBLU5xne1jV0FWx+e1Pe3nqHbFImjUPm0Vn/Z3KpZg5D2c6MWdezNtY2ub+k4CtCoT9q+sf1xQ1ua+JetMYBSInmcrthH4iGG1ULO9fIRN1hxWi+pNhD1BFR4wB8KE3LuJCyGptcqaXGda1hqn44JicU92qJ1byRS1kzOfrSpR28XnqDYscpM/4+/uuxZBPbGz5qgxh+hgBe4koVFbyTP+qKIkoxnO8e5qN/CIoCzy1ADyeTczzZBm1rZRQGfWxD8r4CcxmLEdwbTxqr8jFmvMCKqeO+MzcdiJ6SOCovR6wVgtvVYQR89nbFvZtPbWtUiJyN/ysJKBle3fiqB2xUSMHhEU2dYrKEr2yTFjWxTRrdMmRP6Wh1XVrRi+BUERA0v4nhg8IigM84K4U349APTesQhekkEE0aM29j0/Tt0jRgWT3tWq5Pzey4fe/Dv3qEpR+2DwfkxQniNqnH1iWMfBJYAR+xr+UbjM17tGVcFsHK0k5Ek+CAt/rRayh9PsPUROnCNiWGP7mKCszAxAT5HJyrjYRkaNGBZ5sOVfGFaCnD32x28ID84WRl4xISI45RH3KuaPCWrV4Pu7/08EEBhCQGSIUwmNaslz3uN9fhexP/IgfwXlQem+cxFwInAF5QTqvnYR8CBwBeVB6b5zEXAicAXlBOq+dhHwIHAF5UHpvnMRcCJwBeUE6r52EfAgcAXlQem+cxFwInAF5QTqvnYR8CBwBeVB6b5zEXAicAXlBOq+dhHwIHAF5UHpvnMRcCJwBeUE6r52EfAg8B9biWy3Vw/HiQAAAABJRU5ErkJggg==;" parent="6e0c8c40b5770093-19" vertex="1">
          <mxGeometry x="310" y="87" width="67.56" height="29" as="geometry" />
        </mxCell>
        <mxCell id="DuaEEdyuPfg1Iy30Oizu-15" value="" style="shape=folder;fontStyle=1;spacingTop=10;tabWidth=90;tabHeight=40;tabPosition=left;html=1;rounded=0;shadow=0;comic=0;labelBackgroundColor=none;strokeWidth=1;fontFamily=Verdana;fontSize=10;align=center;" parent="6e0c8c40b5770093-19" vertex="1">
          <mxGeometry x="160" y="290" width="370" height="300" as="geometry" />
        </mxCell>
        <mxCell id="DuaEEdyuPfg1Iy30Oizu-16" value="" style="shape=folder;fontStyle=1;spacingTop=10;tabWidth=85;tabHeight=50;tabPosition=left;html=1;rounded=0;shadow=0;comic=0;labelBackgroundColor=none;strokeWidth=1;fontFamily=Verdana;fontSize=10;align=center;" parent="6e0c8c40b5770093-19" vertex="1">
          <mxGeometry x="214.67" y="360" width="258.22" height="200" as="geometry" />
        </mxCell>
        <mxCell id="DuaEEdyuPfg1Iy30Oizu-19" value="" style="shape=image;verticalLabelPosition=bottom;labelBackgroundColor=#ffffff;verticalAlign=top;aspect=fixed;imageAspect=0;image=https://blog.kakaocdn.net/dn/bBLVn5/btqCQ31hFxc/OWrBnpuGJiMMQg9JnJAz3K/img.png;" parent="6e0c8c40b5770093-19" vertex="1">
          <mxGeometry x="224.00000000000003" y="365" width="65.9" height="40" as="geometry" />
        </mxCell>
        <mxCell id="DuaEEdyuPfg1Iy30Oizu-21" value="&lt;font style=&quot;font-size: 23px&quot;&gt;&lt;b&gt;DT&lt;/b&gt;&lt;/font&gt;" style="ellipse;whiteSpace=wrap;html=1;" parent="6e0c8c40b5770093-19" vertex="1">
          <mxGeometry x="283.78" y="450" width="120" height="80" as="geometry" />
        </mxCell>
        <mxCell id="DuaEEdyuPfg1Iy30Oizu-22" value="" style="shape=image;verticalLabelPosition=bottom;labelBackgroundColor=#ffffff;verticalAlign=top;aspect=fixed;imageAspect=0;image=https://upload.wikimedia.org/wikipedia/commons/thumb/9/93/Amazon_Web_Services_Logo.svg/1920px-Amazon_Web_Services_Logo.svg.png;" parent="6e0c8c40b5770093-19" vertex="1">
          <mxGeometry x="180" y="293.62" width="54.76" height="32.75" as="geometry" />
        </mxCell>
        <mxCell id="DuaEEdyuPfg1Iy30Oizu-24" value="" style="endArrow=classic;html=1;" parent="6e0c8c40b5770093-19" edge="1">
          <mxGeometry width="50" height="50" relative="1" as="geometry">
            <mxPoint x="403.78" y="365" as="sourcePoint" />
            <mxPoint x="403.78" y="220" as="targetPoint" />
          </mxGeometry>
        </mxCell>
        <mxCell id="DuaEEdyuPfg1Iy30Oizu-1" value="" style="shape=image;verticalLabelPosition=bottom;labelBackgroundColor=#ffffff;verticalAlign=top;aspect=fixed;imageAspect=0;image=https://upload.wikimedia.org/wikipedia/commons/thumb/9/93/Amazon_Web_Services_Logo.svg/1920px-Amazon_Web_Services_Logo.svg.png;" parent="1" vertex="1">
          <mxGeometry x="710" y="160" width="76.08" height="45.5" as="geometry" />
        </mxCell>
        <mxCell id="DuaEEdyuPfg1Iy30Oizu-14" value="" style="endArrow=classic;startArrow=classic;html=1;" parent="1" edge="1">
          <mxGeometry width="50" height="50" relative="1" as="geometry">
            <mxPoint x="895" y="390" as="sourcePoint" />
            <mxPoint x="1045" y="390" as="targetPoint" />
          </mxGeometry>
        </mxCell>
        <mxCell id="DuaEEdyuPfg1Iy30Oizu-38" value="&lt;font style=&quot;font-size: 23px&quot;&gt;Client&lt;/font&gt;" style="shape=folder;fontStyle=1;spacingTop=10;tabWidth=220;tabHeight=0;tabPosition=left;html=1;rounded=0;shadow=0;comic=0;labelBackgroundColor=none;strokeWidth=1;fontFamily=Verdana;fontSize=10;align=center;" parent="1" vertex="1">
          <mxGeometry x="320" y="310" width="224" height="160" as="geometry" />
        </mxCell>
        <mxCell id="DuaEEdyuPfg1Iy30Oizu-39" value="" style="endArrow=classic;html=1;" parent="1" edge="1">
          <mxGeometry width="50" height="50" relative="1" as="geometry">
            <mxPoint x="730" y="389.40999999999997" as="sourcePoint" />
            <mxPoint x="500" y="389.40999999999997" as="targetPoint" />
          </mxGeometry>
        </mxCell>
        <mxCell id="DuaEEdyuPfg1Iy30Oizu-40" value="" style="endArrow=classic;html=1;" parent="1" edge="1">
          <mxGeometry width="50" height="50" relative="1" as="geometry">
            <mxPoint x="610" y="550" as="sourcePoint" />
            <mxPoint x="610" y="400" as="targetPoint" />
          </mxGeometry>
        </mxCell>
        <mxCell id="DuaEEdyuPfg1Iy30Oizu-41" value="&lt;font style=&quot;font-size: 23px&quot;&gt;ELB&lt;/font&gt;" style="shape=folder;fontStyle=1;spacingTop=10;tabWidth=220;tabHeight=0;tabPosition=left;html=1;rounded=0;shadow=0;comic=0;labelBackgroundColor=none;strokeWidth=1;fontFamily=Verdana;fontSize=10;align=center;" parent="1" vertex="1">
          <mxGeometry x="520" y="570" width="134" height="110" as="geometry" />
        </mxCell>
      </root>
    </mxGraphModel>
  </diagram>
</mxfile>
